HIERARCHY
ROOT hip
{
  OFFSET 0 0 0
  CHANNELS 6 Xposition Yposition Zposition Zrotation Yrotation Xrotation
  JOINT abdomen
  {
    OFFSET 0 20.6881 -0.73152
    CHANNELS 3 Zrotation Xrotation Yrotation
    JOINT chest
    {
      OFFSET 0 11.7043 -0.48768
      CHANNELS 3 Zrotation Xrotation Yrotation
      JOINT neck
      {
        OFFSET 0 22.1894 -2.19456
        CHANNELS 3 Zrotation Xrotation Yrotation
        JOINT head
        {
          OFFSET -0.24384 7.07133 1.2192
          CHANNELS 3 Zrotation Xrotation Yrotation
          JOINT leftEye
          {
            OFFSET 4.14528 8.04674 8.04672
            CHANNELS 3 Zrotation Xrotation Yrotation
            End Site
            {
              OFFSET 1 0 0
            }
          }
          JOINT rightEye
          {
            OFFSET -3.6576 8.04674 8.04672
            CHANNELS 3 Zrotation Xrotation Yrotation
            End Site
            {
              OFFSET 1 0 0
            }
          }
        }
      }
      JOINT rCollar
      {
        OFFSET -2.68224 19.2634 -4.8768
        CHANNELS 3 Zrotation Xrotation Yrotation
        JOINT rShldr
        {
          OFFSET -8.77824 -1.95073 1.46304
          CHANNELS 3 Zrotation Xrotation Yrotation
          JOINT rForeArm
          {
            OFFSET -28.1742 -1.7115 0.48768
            CHANNELS 3 Zrotation Xrotation Yrotation
            JOINT rHand
            {
              OFFSET -22.5879 0.773209 7.07136
              CHANNELS 3 Zrotation Xrotation Yrotation
              JOINT rThumb1
              {
                OFFSET -1.2192 -0.487915 3.41376
                CHANNELS 3 Zrotation Xrotation Yrotation
                JOINT rThumb2
                {
                  OFFSET -3.37035 -0.52449 3.41376
                  CHANNELS 3 Zrotation Xrotation Yrotation
                  End Site
                  {
                    OFFSET -1.78271 -1.18214 1.43049
                  }
                }
              }
              JOINT rIndex1
              {
                OFFSET -7.75947 0.938293 5.60832
                CHANNELS 3 Zrotation Xrotation Yrotation
                JOINT rIndex2
                {
                  OFFSET -2.54057 -0.884171 1.56538
                  CHANNELS 3 Zrotation Xrotation Yrotation
                  End Site
                  {
                    OFFSET -1.62519 -0.234802 1.16502
                  }
                }
              }
              JOINT rMid1
              {
                OFFSET -8.24714 1.18213 3.41376
                CHANNELS 3 Zrotation Xrotation Yrotation
                JOINT rMid2
                {
                  OFFSET -3.10165 -0.590103 1.0647
                  CHANNELS 3 Zrotation Xrotation Yrotation
                  End Site
                  {
                    OFFSET -2.48547 -0.328903 0.83742
                  }
                }
              }
              JOINT rRing1
              {
                OFFSET -8.82822 0.546677 1.51678
                CHANNELS 3 Zrotation Xrotation Yrotation
                JOINT rRing2
                {
                  OFFSET -2.60934 -0.819778 -0.0198488
                  CHANNELS 3 Zrotation Xrotation Yrotation
                  End Site
                  {
                    OFFSET -2.33842 -0.294052 0.168128
                  }
                }
              }
              JOINT rPinky1
              {
                OFFSET -8.27202 -0.0477905 -0.4584
                CHANNELS 3 Zrotation Xrotation Yrotation
                JOINT rPinky2
                {
                  OFFSET -1.82734 -0.647385 -0.700984
                  CHANNELS 3 Zrotation Xrotation Yrotation
                  End Site
                  {
                    OFFSET -1.69225 -0.51767 -0.607171
                  }
                }
              }
            }
          }
        }
      }
      JOINT lCollar
      {
        OFFSET 2.68224 19.2634 -4.8768
        CHANNELS 3 Zrotation Xrotation Yrotation
        JOINT lShldr
        {
          OFFSET 8.77824 -1.95073 1.46304
          CHANNELS 3 Zrotation Xrotation Yrotation
          JOINT lForeArm
          {
            OFFSET 28.1742 -1.7115 0.48768
            CHANNELS 3 Zrotation Xrotation Yrotation
            JOINT lHand
            {
              OFFSET 22.5879 0.773209 7.07136
              CHANNELS 3 Zrotation Xrotation Yrotation
              JOINT lThumb1
              {
                OFFSET 1.2192 -0.487915 3.41376
                CHANNELS 3 Zrotation Xrotation Yrotation
                JOINT lThumb2
                {
                  OFFSET 3.37035 -0.52449 3.41376
                  CHANNELS 3 Zrotation Xrotation Yrotation
                  End Site
                  {
                    OFFSET 1.78271 -1.18214 1.43049
                  }
                }
              }
              JOINT lIndex1
              {
                OFFSET 7.75947 0.938293 5.60832
                CHANNELS 3 Zrotation Xrotation Yrotation
                JOINT lIndex2
                {
                  OFFSET 2.54057 -0.884171 1.56538
                  CHANNELS 3 Zrotation Xrotation Yrotation
                  End Site
                  {
                    OFFSET 1.62519 -0.234802 1.16502
                  }
                }
              }
              JOINT lMid1
              {
                OFFSET 8.24714 1.18213 3.41376
                CHANNELS 3 Zrotation Xrotation Yrotation
                JOINT lMid2
                {
                  OFFSET 3.10165 -0.590103 1.0647
                  CHANNELS 3 Zrotation Xrotation Yrotation
                  End Site
                  {
                    OFFSET 2.48547 -0.328903 0.83742
                  }
                }
              }
              JOINT lRing1
              {
                OFFSET 8.82822 0.546677 1.51678
                CHANNELS 3 Zrotation Xrotation Yrotation
                JOINT lRing2
                {
                  OFFSET 2.60934 -0.819778 -0.0198488
                  CHANNELS 3 Zrotation Xrotation Yrotation
                  End Site
                  {
                    OFFSET 2.33842 -0.294052 0.168128
                  }
                }
              }
              JOINT lPinky1
              {
                OFFSET 8.27202 -0.0477905 -0.4584
                CHANNELS 3 Zrotation Xrotation Yrotation
                JOINT lPinky2
                {
                  OFFSET 1.82734 -0.647385 -0.700984
                  CHANNELS 3 Zrotation Xrotation Yrotation
                  End Site
                  {
                    OFFSET 1.69225 -0.51767 -0.607171
                  }
                }
              }
            }
          }
        }
      }
    }
  }
  JOINT rButtock
  {
    OFFSET -8.77824 4.35084 1.2192
    CHANNELS 3 Zrotation Xrotation Yrotation
    JOINT rThigh
    {
      OFFSET 0 -1.70687 -2.19456
      CHANNELS 3 Zrotation Xrotation Yrotation
      JOINT rShin
      {
        OFFSET 0 -36.8199 0.73152
        CHANNELS 3 Zrotation Xrotation Yrotation
        JOINT rFoot
        {
          OFFSET 0.73152 -45.1104 -5.12064
          CHANNELS 3 Zrotation Xrotation Yrotation
          End Site
          {
            OFFSET -1.1221 -3.69964 12.103
          }
        }
      }
    }
  }
  JOINT lButtock
  {
    OFFSET 8.77824 4.35084 1.2192
    CHANNELS 3 Zrotation Xrotation Yrotation
    JOINT lThigh
    {
      OFFSET 0 -1.70687 -2.19456
      CHANNELS 3 Zrotation Xrotation Yrotation
      JOINT lShin
      {
        OFFSET 0 -36.8199 0.73152
        CHANNELS 3 Zrotation Xrotation Yrotation
        JOINT lFoot
        {
          OFFSET -0.73152 -45.1104 -5.12064
          CHANNELS 3 Zrotation Xrotation Yrotation
          End Site
          {
            OFFSET 1.1221 -3.69964 12.103
          }
        }
      }
    }
  }
}
MOTION
Frames:	7
Frame Time:	0.03333
-8.4752 55.4823 76.816 0.6847 49.2445 4.7812 -5.27237 12.2572 -2.54564 5.86665 -11.406200000000002 -0.199001 -9.653559999999999 20.543400000000002 -15.1552 11.6439 -30.8873 -27.434799999999996 -0.0 0.0 0.0 -0.0 0.0 0.0 -1.67488e-14 2.04303e-13 2.2628799999999997e-13 52.1736 -6.42413 30.6046 -27.9693 -30.431799999999996 67.9383 -0.644514 22.188199999999995 3.28599 -2.63314e-10 -2.22174e-09 -1.61338e-09 -4.795319999999999e-10 -3.86986e-09 -2.77927e-09 -2.63307e-10 -2.22174e-09 -1.61338e-09 7.730909999999999 5.47488 0.417314 -2.63317e-10 -2.22174e-09 -1.61337e-09 2.90554 0.965183 0.102902 -2.63306e-10 -2.22174e-09 -1.61337e-09 10.278600000000003 0.731801 0.0259123 -2.63319e-10 -2.22174e-09 -1.61337e-09 2.22167 -0.733487 -0.20892000000000002 -1.67196e-14 2.043e-13 2.2611099999999995e-13 -91.14590000000001 76.4144 16.4421 27.6601 -41.9258 -87.44769999999998 20.3928 -72.98159999999999 27.3329 -2.02833e-09 -1.01384e-09 -4.64038e-10 -3.4550499999999996e-09 -5.69703e-10 -8.989680000000001e-10 -2.02833e-09 -1.01385e-09 -4.64025e-10 -7.730909999999999 5.47488 -0.417314 -2.02833e-09 -1.01385e-09 -4.64038e-10 -2.90554 0.965183 -0.102902 -2.02833e-09 -1.01384e-09 -4.6404e-10 -10.278600000000003 0.731801 -0.0259123 -2.02833e-09 -1.01384e-09 -4.640519999999999e-10 -2.22167 -0.733487 0.20892000000000002 -2.03217e-16 0.0 -3.88251e-19 -56.4074 -47.8531 -60.3721 -2.1681699999999995 70.4056 2.45393 0.749228 -2.83616 5.23865 2.03217e-16 0.0 3.88251e-19 33.6181 -20.7339 28.810300000000005 1.0940700000000003 68.9943 -4.14661 7.54325 -20.470800000000004 22.7585
-8.46935 55.4251 76.7147 0.6025000000000001 49.224500000000006 4.6907 -5.2291 12.2959 -2.5681699999999994 5.936100000000001 -11.397400000000001 -0.19614 -9.62779 20.586599999999997 -15.155599999999998 11.7053 -30.9176 -27.4202 -0.0 0.0 0.0 -0.0 0.0 0.0 -1.58592e-14 2.5921499999999997e-13 3.02252e-13 52.2009 -6.503149999999999 30.693599999999996 -27.9543 -30.3464 67.8017 -0.635813 22.047500000000003 3.26291 3.45609e-10 -1.69135e-09 -2.1419399999999997e-09 5.66279e-10 -2.9762099999999996e-09 -3.70289e-09 3.45619e-10 -1.69135e-09 -2.1419399999999997e-09 7.730909999999999 5.47488 0.417314 3.45607e-10 -1.69135e-09 -2.14193e-09 2.90554 0.965183 0.102902 3.45618e-10 -1.69135e-09 -2.14193e-09 10.278600000000003 0.731801 0.0259123 3.45602e-10 -1.69135e-09 -2.14193e-09 2.22167 -0.733487 -0.20892000000000002 -1.5897700000000004e-14 2.5921499999999997e-13 3.02053e-13 -90.90350000000001 76.6213 16.2679 27.6644 -41.9094 -87.41690000000001 20.5924 -73.0937 27.5416 -2.8001e-09 -4.71607e-09 -3.17066e-10 -4.7851399999999995e-09 -6.509559999999999e-09 -6.926019999999999e-10 -2.80011e-09 -4.71607e-09 -3.1705699999999996e-10 -7.730909999999999 5.47488 -0.417314 -2.8001e-09 -4.71609e-09 -3.1707e-10 -2.90554 0.965183 -0.102902 -2.80011e-09 -4.71607e-09 -3.1707e-10 -10.278600000000003 0.731801 -0.0259123 -2.8001e-09 -4.71607e-09 -3.17082e-10 -2.22167 -0.733487 0.20892000000000002 -2.03217e-16 0.0 -3.88251e-19 -56.4567 -47.8036 -60.4612 -2.16082 70.342 2.43831 0.774471 -2.79591 5.41385 2.03217e-16 0.0 3.88251e-19 33.71379999999999 -20.8725 28.851300000000002 1.11695 69.2557 -4.17866 7.604689999999999 -20.603599999999997 22.7829
-8.45357 55.37489999999999 76.6217 0.634 49.19070000000001 4.685999999999999 -5.29323 12.323400000000001 -2.57236 6.003879999999999 -11.3857 -0.191679 -9.61752 20.6271 -15.172099999999999 11.762800000000002 -30.910800000000002 -27.439900000000005 -0.0 0.0 0.0 -0.0 0.0 0.0 -8.64038e-14 4.28432e-13 1.6986500000000003e-13 52.1994 -6.541590000000001 30.753299999999996 -27.9403 -30.2676 67.6758 -0.6326620000000001 21.9959 3.25447 1.56455e-09 -7.970519999999999e-10 -3.54346e-09 2.65126e-09 -1.49269e-09 -6.14644e-09 1.56456e-09 -7.97051e-10 -3.54347e-09 7.730909999999999 5.47488 0.417314 1.56455e-09 -7.970519999999999e-10 -3.54346e-09 2.90554 0.965183 0.102902 1.56455e-09 -7.970519999999999e-10 -3.54346e-09 10.278600000000003 0.731801 0.0259123 1.56454e-09 -7.9705e-10 -3.54345e-09 2.22167 -0.733487 -0.20892000000000002 -8.6414e-14 4.2842899999999995e-13 1.697e-13 -90.6933 76.80799999999999 16.1732 27.6575 -41.9355 -87.46579999999999 20.559999999999995 -73.0756 27.507699999999996 -3.5271099999999994e-09 -8.66298e-09 -1.67116e-10 -6.034139999999999e-09 -1.29098e-08 -4.79005e-10 -3.5271099999999994e-09 -8.66297e-09 -1.67105e-10 -7.730909999999999 5.47488 -0.417314 -3.5271000000000008e-09 -8.66298e-09 -1.67118e-10 -2.90554 0.965183 -0.102902 -3.5271099999999994e-09 -8.66297e-09 -1.67119e-10 -10.278600000000003 0.731801 -0.0259123 -3.5271000000000008e-09 -8.66297e-09 -1.67131e-10 -2.22167 -0.733487 0.20892000000000002 -2.03217e-16 0.0 -3.88251e-19 -56.6276 -47.74609999999999 -60.6075 -2.1580099999999995 70.3047 2.42699 0.797562 -2.72687 5.620170000000001 2.03217e-16 0.0 3.88251e-19 33.6828 -20.935300000000005 28.8664 1.1314400000000002 69.4353 -4.20475 7.67552 -20.6403 22.9124
-8.43234 55.333 76.5405 0.6767 49.12019999999999 4.707 -5.36079 12.333 -2.56069 6.05742 -11.3745 -0.18412 -9.61489 20.6656 -15.190900000000001 11.8165 -30.884499999999992 -27.4671 -0.0 0.0 0.0 -0.0 0.0 0.0 -1.3955e-13 5.116740000000001e-13 -8.259499999999999e-14 52.1814 -6.5554 30.790699999999998 -27.9273 -30.1953 67.5604 -0.63393 22.016799999999996 3.25789 2.09728e-09 2.40041e-10 -3.57748e-09 3.57082e-09 2.8358100000000003e-10 -6.216980000000001e-09 2.0972899999999995e-09 2.40045e-10 -3.5775000000000005e-09 7.730909999999999 5.47488 0.417314 2.0972699999999997e-09 2.40044e-10 -3.57748e-09 2.90554 0.965183 0.102902 2.09728e-09 2.40045e-10 -3.57748e-09 10.278600000000003 0.731801 0.0259123 2.09728e-09 2.40046e-10 -3.5774699999999996e-09 2.22167 -0.733487 -0.20892000000000002 -1.39552e-13 5.11669e-13 -8.27441e-14 -90.522 76.9634 16.127500000000005 27.6466 -41.977 -87.5437 20.427400000000002 -73.0011 27.3691 -3.26223e-09 -1.15194e-08 2.00782e-10 -5.59573e-09 -1.80092e-08 1.5948099999999998e-10 -3.26223e-09 -1.15194e-08 2.00798e-10 -7.730909999999999 5.47488 -0.417314 -3.26222e-09 -1.15194e-08 2.00782e-10 -2.90554 0.965183 -0.102902 -3.26223e-09 -1.15194e-08 2.0078e-10 -10.278600000000003 0.731801 -0.0259123 -3.26222e-09 -1.15194e-08 2.00769e-10 -2.22167 -0.733487 0.20892000000000002 -2.03217e-16 0.0 -3.88251e-19 -56.8003 -47.7098 -60.7606 -2.15594 70.273 2.41668 0.816453 -2.64317 5.819819999999999 2.03217e-16 0.0 3.88251e-19 33.6398 -20.9609 28.890499999999992 1.14176 69.5717 -4.22657 7.743260000000001 -20.631 23.0725
-8.41851 55.2998 76.4753 0.6297 49.0201 4.6833 -5.31708 12.301699999999999 -2.51554 6.06773 -11.3639 -0.167655 -9.61208 20.7043 -15.1988 11.850800000000001 -30.850599999999996 -27.481899999999996 -0.0 0.0 0.0 -0.0 0.0 0.0 -7.92844e-14 2.51908e-13 -5.11575e-13 52.1614 -6.54855 30.8063 -27.9158 -30.1321 67.4596 -0.640371 22.1217 3.2750599999999994 -1.98919e-10 1.3027399999999998e-09 1.60743e-09 -3.18373e-10 2.29057e-09 2.77469e-09 -1.98908e-10 1.30275e-09 1.6074100000000001e-09 7.730909999999999 5.47488 0.417314 -1.98921e-10 1.30275e-09 1.60743e-09 2.90554 0.965183 0.102902 -1.98917e-10 1.30275e-09 1.60743e-09 10.278600000000003 0.731801 0.0259123 -1.9891999999999997e-10 1.30275e-09 1.60743e-09 2.22167 -0.733487 -0.20892000000000002 -7.94286e-14 2.51911e-13 -5.11827e-13 -90.4096 77.0669 16.1115 27.6365 -42.015299999999996 -87.6154 20.277699999999996 -72.9161 27.2125 3.188859999999999e-11 -1.07894e-08 1.2598100000000002e-09 -9.84568e-12 -1.8688800000000002e-08 2.13926e-09 3.18838e-11 -1.07894e-08 1.25983e-09 -7.730909999999999 5.47488 -0.417314 3.18928e-11 -1.07894e-08 1.2598100000000002e-09 -2.90554 0.965183 -0.102902 3.18893e-11 -1.07894e-08 1.2598100000000002e-09 -10.278600000000003 0.731801 -0.0259123 3.18985e-11 -1.07894e-08 1.2598e-09 -2.22167 -0.733487 0.20892000000000002 -2.03217e-16 0.0 -3.88251e-19 -56.8593 -47.7429 -60.8935 -2.15151 70.22800000000001 2.40365 0.8264 -2.53623 5.981300000000001 2.03217e-16 0.0 3.88251e-19 33.7026 -20.9587 28.981900000000007 1.15123 69.69380000000001 -4.245769999999999 7.80228 -20.6085 23.216200000000004
-8.41157 55.2825 76.4228 0.47590000000000005 48.92450000000001 4.5964 -5.19334 12.256 -2.47736 6.05343 -11.3538 -0.15310799999999997 -9.60963 20.7406 -15.201799999999997 11.873 -30.826700000000002 -27.4888 -0.0 0.0 0.0 -0.0 0.0 0.0 -4.25443e-15 -3.1016e-14 -8.014e-13 52.1418 -6.53433 30.816600000000005 -27.9052 -30.0741 67.3669 -0.6477919999999999 22.2412 3.2946899999999997 -2.38434e-09 1.8555800000000001e-09 6.10953e-09 -4.02673e-09 3.39865e-09 1.05865e-08 -2.38433e-09 1.8555800000000001e-09 6.109519999999999e-09 7.730909999999999 5.47488 0.417314 -2.38434e-09 1.8555800000000001e-09 6.10953e-09 2.90554 0.965183 0.102902 -2.38433e-09 1.8555800000000001e-09 6.10953e-09 10.278600000000003 0.731801 0.0259123 -2.38434e-09 1.8555800000000001e-09 6.10954e-09 2.22167 -0.733487 -0.20892000000000002 -4.54214e-15 -3.10065e-14 -8.01748e-13 -90.4421 77.11639999999998 16.2115 27.6273 -42.049699999999994 -87.6801 20.107800000000005 -72.8184 27.0347 2.9687199999999996e-09 -8.3e-09 2.00249e-09 4.97977e-09 -1.6114499999999995e-08 3.5627e-09 2.9687099999999998e-09 -8.3e-09 2.00252e-09 -7.730909999999999 5.47488 -0.417314 2.9687199999999996e-09 -8.30001e-09 2.0025e-09 -2.90554 0.965183 -0.102902 2.9687199999999996e-09 -8.29999e-09 2.0025e-09 -10.278600000000003 0.731801 -0.0259123 2.96873e-09 -8.30001e-09 2.00249e-09 -2.22167 -0.733487 0.20892000000000002 -2.03217e-16 0.0 -3.88251e-19 -56.8355 -47.7985 -60.9916 -2.14492 70.1721 2.38973 0.829853 -2.4271 6.0979399999999995 2.03217e-16 0.0 3.88251e-19 33.82439999999999 -20.9677 29.080700000000007 1.1606699999999999 69.8079 -4.262770000000001 7.85187 -20.5837 23.3395
-8.41353 55.27040000000001 76.3797 0.25239999999999996 48.8773 4.466799999999999 -4.9657100000000005 12.2101 -2.48561 6.019209999999999 -11.3446 -0.15054600000000004 -9.607419999999998 20.7686 -15.200300000000004 11.8818 -30.826200000000007 -27.482800000000005 -0.0 0.0 0.0 -0.0 0.0 0.0 9.142589999999999e-15 -4.61189e-14 -5.20092e-13 52.1366 -6.52386 30.8392 -27.8952 -30.020699999999994 67.2818 -0.651717 22.3041 3.30503 -1.48632e-09 7.41691e-10 3.40125e-09 -2.5173800000000003e-09 1.38935e-09 5.895760000000001e-09 -1.48631e-09 7.41695e-10 3.40124e-09 7.730909999999999 5.47488 0.417314 -1.48632e-09 7.41697e-10 3.40125e-09 2.90554 0.965183 0.102902 -1.48631e-09 7.41698e-10 3.40125e-09 10.278600000000003 0.731801 0.0259123 -1.48632e-09 7.417e-10 3.40126e-09 2.22167 -0.733487 -0.20892000000000002 8.838700000000002e-15 -4.6119000000000006e-14 -5.20403e-13 -90.7754 77.0876 16.5673 27.6209 -42.0735 -87.72489999999999 19.9187 -72.7081 26.8367 1.7248899999999998e-09 -4.63856e-09 1.1371299999999998e-09 2.89457e-09 -9.04595e-09 2.02561e-09 1.7248899999999998e-09 -4.63856e-09 1.13715e-09 -7.730909999999999 5.47488 -0.417314 1.7248899999999998e-09 -4.63856e-09 1.1371299999999998e-09 -2.90554 0.965183 -0.102902 1.7248899999999998e-09 -4.63856e-09 1.1371299999999998e-09 -10.278600000000003 0.731801 -0.0259123 1.7249e-09 -4.63856e-09 1.1371299999999998e-09 -2.22167 -0.733487 0.20892000000000002 -2.03217e-16 0.0 -3.88251e-19 -56.7033 -47.846 -61.02340000000001 -2.13484 70.098 2.37511 0.828079 -2.33923 6.14947 2.03217e-16 0.0 3.88251e-19 34.0135 -21.0354 29.1525 1.17284 69.9349 -4.2789399999999995 7.88777 -20.586700000000004 23.4116
